<?xml version="1.0" encoding="UTF-8"?>
<svg xmlns="http://www.w3.org/2000/svg" xmlns:xlink="http://www.w3.org/1999/xlink" width="400.762pt" height="139.032pt" viewBox="0 0 400.762 139.032" version="1.2">
<defs>
<g>
<symbol overflow="visible" id="glyph0-0">
<path style="stroke:none;" d="M 0.5 0 L 4.453125 0 L 4.453125 -5.9375 L 0.5 -5.9375 Z M 0.5 0 "/>
</symbol>
<symbol overflow="visible" id="glyph0-1">
<path style="stroke:none;" d="M 7.125 -3.359375 C 7.125 -5.375 5.640625 -6.96875 3.84375 -6.96875 C 2.0625 -6.96875 0.546875 -5.390625 0.546875 -3.359375 C 0.546875 -1.328125 2.078125 0.21875 3.84375 0.21875 C 5.640625 0.21875 7.125 -1.359375 7.125 -3.359375 Z M 3.84375 -0.046875 C 2.890625 -0.046875 1.578125 -0.90625 1.578125 -3.484375 C 1.578125 -6.046875 3.015625 -6.71875 3.84375 -6.71875 C 4.703125 -6.71875 6.109375 -6.015625 6.109375 -3.484375 C 6.109375 -0.875 4.75 -0.046875 3.84375 -0.046875 Z M 3.84375 -0.046875 "/>
</symbol>
<symbol overflow="visible" id="glyph0-2">
<path style="stroke:none;" d="M 6.140625 -5.78125 C 6.28125 -6.15625 6.546875 -6.4375 7.21875 -6.453125 L 7.21875 -6.75 C 6.90625 -6.734375 6.515625 -6.71875 6.265625 -6.71875 C 5.96875 -6.71875 5.390625 -6.75 5.140625 -6.75 L 5.140625 -6.453125 C 5.640625 -6.4375 5.859375 -6.1875 5.859375 -5.953125 C 5.859375 -5.875 5.828125 -5.8125 5.8125 -5.75 L 4 -0.984375 L 2.109375 -5.984375 C 2.046875 -6.125 2.046875 -6.140625 2.046875 -6.15625 C 2.046875 -6.453125 2.609375 -6.453125 2.859375 -6.453125 L 2.859375 -6.75 C 2.5 -6.71875 1.8125 -6.71875 1.4375 -6.71875 C 0.96875 -6.71875 0.546875 -6.75 0.1875 -6.75 L 0.1875 -6.453125 C 0.828125 -6.453125 1.015625 -6.453125 1.15625 -6.078125 L 3.453125 0 C 3.515625 0.1875 3.578125 0.21875 3.703125 0.21875 C 3.875 0.21875 3.890625 0.171875 3.9375 0.03125 Z M 6.140625 -5.78125 "/>
</symbol>
<symbol overflow="visible" id="glyph0-3">
<path style="stroke:none;" d="M 6.0625 -5.984375 C 6.0625 -6.34375 6.078125 -6.453125 6.84375 -6.453125 L 7.078125 -6.453125 L 7.078125 -6.75 C 6.734375 -6.71875 6 -6.71875 5.625 -6.71875 C 5.25 -6.71875 4.515625 -6.71875 4.15625 -6.75 L 4.15625 -6.453125 L 4.40625 -6.453125 C 5.15625 -6.453125 5.1875 -6.34375 5.1875 -5.984375 L 5.1875 -3.671875 L 2.21875 -3.671875 L 2.21875 -5.984375 C 2.21875 -6.34375 2.25 -6.453125 3 -6.453125 L 3.25 -6.453125 L 3.25 -6.75 C 2.890625 -6.71875 2.171875 -6.71875 1.796875 -6.71875 C 1.421875 -6.71875 0.671875 -6.71875 0.328125 -6.75 L 0.328125 -6.453125 L 0.5625 -6.453125 C 1.328125 -6.453125 1.34375 -6.34375 1.34375 -5.984375 L 1.34375 -0.765625 C 1.34375 -0.421875 1.328125 -0.3125 0.5625 -0.3125 L 0.328125 -0.3125 L 0.328125 0 C 0.671875 -0.03125 1.40625 -0.03125 1.78125 -0.03125 C 2.15625 -0.03125 2.890625 -0.03125 3.25 0 L 3.25 -0.3125 L 3 -0.3125 C 2.25 -0.3125 2.21875 -0.421875 2.21875 -0.765625 L 2.21875 -3.359375 L 5.1875 -3.359375 L 5.1875 -0.765625 C 5.1875 -0.421875 5.15625 -0.3125 4.40625 -0.3125 L 4.15625 -0.3125 L 4.15625 0 C 4.515625 -0.03125 5.234375 -0.03125 5.625 -0.03125 C 6 -0.03125 6.734375 -0.03125 7.078125 0 L 7.078125 -0.3125 L 6.84375 -0.3125 C 6.078125 -0.3125 6.0625 -0.421875 6.0625 -0.765625 Z M 6.0625 -5.984375 "/>
</symbol>
<symbol overflow="visible" id="glyph0-4">
<path style="stroke:none;" d="M 3.859375 -2.28125 C 4.078125 -2.28125 4.109375 -2.28125 4.109375 -2.5 C 4.109375 -3.46875 3.578125 -4.4375 2.328125 -4.4375 C 1.1875 -4.4375 0.28125 -3.40625 0.28125 -2.171875 C 0.28125 -0.84375 1.3125 0.109375 2.453125 0.109375 C 3.65625 0.109375 4.109375 -0.984375 4.109375 -1.171875 C 4.109375 -1.28125 4.03125 -1.296875 3.96875 -1.296875 C 3.890625 -1.296875 3.875 -1.234375 3.84375 -1.15625 C 3.5 -0.140625 2.609375 -0.140625 2.515625 -0.140625 C 2.015625 -0.140625 1.625 -0.4375 1.390625 -0.796875 C 1.09375 -1.28125 1.09375 -1.921875 1.09375 -2.28125 Z M 1.109375 -2.5 C 1.171875 -3.96875 2 -4.21875 2.328125 -4.21875 C 3.359375 -4.21875 3.453125 -2.875 3.453125 -2.5 Z M 0.828125 -4.90625 L 2.328125 -5.59375 L 3.8125 -4.90625 L 3.90625 -5.109375 L 2.328125 -6.09375 L 0.734375 -5.109375 Z M 2.328125 1.546875 C 2.578125 1.546875 2.78125 1.328125 2.78125 1.09375 C 2.78125 0.84375 2.578125 0.640625 2.328125 0.640625 C 2.078125 0.640625 1.875 0.84375 1.875 1.09375 C 1.875 1.328125 2.078125 1.546875 2.328125 1.546875 Z M 2.328125 1.546875 "/>
</symbol>
<symbol overflow="visible" id="glyph0-5">
<path style="stroke:none;" d="M 1.71875 -3.953125 L 3.125 -3.953125 L 3.125 -4.265625 L 1.71875 -4.265625 L 1.71875 -6.078125 L 1.46875 -6.078125 C 1.453125 -5.265625 1.15625 -4.21875 0.1875 -4.171875 L 0.1875 -3.953125 L 1.03125 -3.953125 L 1.03125 -1.21875 C 1.03125 -0.015625 1.953125 0.109375 2.296875 0.109375 C 3 0.109375 3.28125 -0.59375 3.28125 -1.21875 L 3.28125 -1.796875 L 3.03125 -1.796875 L 3.03125 -1.25 C 3.03125 -0.515625 2.734375 -0.140625 2.375 -0.140625 C 1.71875 -0.140625 1.71875 -1.03125 1.71875 -1.203125 Z M 1.71875 -3.953125 "/>
</symbol>
<symbol overflow="visible" id="glyph0-6">
<path style="stroke:none;" d="M 1.703125 -0.765625 L 1.703125 -2.296875 C 1.703125 -3.28125 2.109375 -4.15625 2.875 -4.15625 C 2.9375 -4.15625 2.953125 -4.15625 2.984375 -4.140625 C 2.953125 -4.140625 2.75 -4.015625 2.75 -3.765625 C 2.75 -3.484375 2.953125 -3.328125 3.171875 -3.328125 C 3.359375 -3.328125 3.59375 -3.453125 3.59375 -3.765625 C 3.59375 -4.078125 3.296875 -4.375 2.875 -4.375 C 2.140625 -4.375 1.796875 -3.703125 1.65625 -3.28125 L 1.65625 -4.375 L 0.28125 -4.265625 L 0.28125 -3.953125 C 0.96875 -3.953125 1.046875 -3.890625 1.046875 -3.40625 L 1.046875 -0.75 C 1.046875 -0.3125 0.9375 -0.3125 0.28125 -0.3125 L 0.28125 0 C 0.65625 -0.015625 1.125 -0.03125 1.40625 -0.03125 C 1.796875 -0.03125 2.265625 -0.03125 2.65625 0 L 2.65625 -0.3125 L 2.453125 -0.3125 C 1.71875 -0.3125 1.703125 -0.421875 1.703125 -0.765625 Z M 1.703125 -0.765625 "/>
</symbol>
<symbol overflow="visible" id="glyph0-7">
<path style="stroke:none;" d="M 3.875 -0.78125 L 3.875 0.109375 L 5.296875 0 L 5.296875 -0.3125 C 4.59375 -0.3125 4.515625 -0.375 4.515625 -0.859375 L 4.515625 -4.375 L 3.0625 -4.265625 L 3.0625 -3.953125 C 3.765625 -3.953125 3.84375 -3.890625 3.84375 -3.40625 L 3.84375 -1.640625 C 3.84375 -0.78125 3.359375 -0.109375 2.640625 -0.109375 C 1.8125 -0.109375 1.765625 -0.578125 1.765625 -1.09375 L 1.765625 -4.375 L 0.3125 -4.265625 L 0.3125 -3.953125 C 1.09375 -3.953125 1.09375 -3.921875 1.09375 -3.046875 L 1.09375 -1.5625 C 1.09375 -0.796875 1.09375 0.109375 2.59375 0.109375 C 3.140625 0.109375 3.578125 -0.171875 3.875 -0.78125 Z M 2.921875 1.546875 C 3.171875 1.546875 3.375 1.328125 3.375 1.09375 C 3.375 0.84375 3.171875 0.640625 2.921875 0.640625 C 2.6875 0.640625 2.46875 0.84375 2.46875 1.09375 C 2.46875 1.328125 2.6875 1.546875 2.921875 1.546875 Z M 2.921875 1.546875 "/>
</symbol>
<symbol overflow="visible" id="glyph0-8">
<path style="stroke:none;" d="M 3.546875 -3.8125 C 3.140625 -3.78125 3.078125 -3.484375 3.078125 -3.359375 C 3.078125 -3.109375 3.265625 -2.90625 3.546875 -2.90625 C 3.796875 -2.90625 4 -3.078125 4 -3.375 C 4 -4.046875 3.25 -4.4375 2.484375 -4.4375 C 1.25 -4.4375 0.34375 -3.359375 0.34375 -2.140625 C 0.34375 -0.875 1.3125 0.109375 2.46875 0.109375 C 3.78125 0.109375 4.109375 -1.078125 4.109375 -1.171875 C 4.109375 -1.28125 4 -1.28125 3.96875 -1.28125 C 3.890625 -1.28125 3.875 -1.234375 3.84375 -1.171875 C 3.5625 -0.25 2.921875 -0.140625 2.546875 -0.140625 C 2.03125 -0.140625 1.15625 -0.5625 1.15625 -2.15625 C 1.15625 -3.765625 1.96875 -4.1875 2.5 -4.1875 C 2.578125 -4.1875 3.203125 -4.171875 3.546875 -3.8125 Z M 3.546875 -3.8125 "/>
</symbol>
<symbol overflow="visible" id="glyph0-9">
<path style="stroke:none;" d="M 4.65625 -2.109375 C 4.65625 -3.375 3.671875 -4.4375 2.46875 -4.4375 C 1.234375 -4.4375 0.28125 -3.359375 0.28125 -2.109375 C 0.28125 -0.84375 1.3125 0.109375 2.46875 0.109375 C 3.65625 0.109375 4.65625 -0.859375 4.65625 -2.109375 Z M 2.46875 -0.140625 C 2.046875 -0.140625 1.609375 -0.34375 1.34375 -0.796875 C 1.09375 -1.234375 1.09375 -1.84375 1.09375 -2.203125 C 1.09375 -2.578125 1.09375 -3.109375 1.328125 -3.546875 C 1.609375 -4 2.0625 -4.21875 2.46875 -4.21875 C 2.890625 -4.21875 3.328125 -4 3.578125 -3.578125 C 3.84375 -3.140625 3.84375 -2.578125 3.84375 -2.203125 C 3.84375 -1.84375 3.84375 -1.3125 3.625 -0.875 C 3.40625 -0.421875 2.96875 -0.140625 2.46875 -0.140625 Z M 2.46875 -0.140625 "/>
</symbol>
<symbol overflow="visible" id="glyph0-10">
<path style="stroke:none;" d="M 3.296875 -0.75 C 3.328125 -0.359375 3.59375 0.0625 4.0625 0.0625 C 4.265625 0.0625 4.875 -0.078125 4.875 -0.875 L 4.875 -1.4375 L 4.625 -1.4375 L 4.625 -0.875 C 4.625 -0.3125 4.375 -0.25 4.265625 -0.25 C 3.953125 -0.25 3.90625 -0.6875 3.90625 -0.734375 L 3.90625 -2.71875 C 3.90625 -3.140625 3.90625 -3.515625 3.546875 -3.890625 C 3.171875 -4.265625 2.671875 -4.4375 2.203125 -4.4375 C 1.390625 -4.4375 0.703125 -3.96875 0.703125 -3.3125 C 0.703125 -3.015625 0.90625 -2.84375 1.15625 -2.84375 C 1.4375 -2.84375 1.609375 -3.046875 1.609375 -3.296875 C 1.609375 -3.421875 1.5625 -3.75 1.109375 -3.765625 C 1.375 -4.109375 1.859375 -4.21875 2.171875 -4.21875 C 2.65625 -4.21875 3.21875 -3.828125 3.21875 -2.953125 L 3.21875 -2.578125 C 2.71875 -2.546875 2.03125 -2.515625 1.40625 -2.21875 C 0.65625 -1.890625 0.421875 -1.375 0.421875 -0.9375 C 0.421875 -0.140625 1.375 0.109375 2 0.109375 C 2.65625 0.109375 3.109375 -0.28125 3.296875 -0.75 Z M 3.21875 -2.375 L 3.21875 -1.390625 C 3.21875 -0.4375 2.515625 -0.109375 2.0625 -0.109375 C 1.578125 -0.109375 1.171875 -0.453125 1.171875 -0.953125 C 1.171875 -1.5 1.59375 -2.3125 3.21875 -2.375 Z M 2.328125 1.546875 C 2.578125 1.546875 2.78125 1.328125 2.78125 1.09375 C 2.78125 0.84375 2.578125 0.640625 2.328125 0.640625 C 2.078125 0.640625 1.875 0.84375 1.875 1.09375 C 1.875 1.328125 2.078125 1.546875 2.328125 1.546875 Z M 2.328125 1.546875 "/>
</symbol>
<symbol overflow="visible" id="glyph0-11">
<path style="stroke:none;" d="M 0.984375 -3.703125 C 0.5625 -3.296875 0.328125 -2.71875 0.328125 -2.125 C 0.328125 -1.546875 0.546875 -0.96875 0.9375 -0.546875 C 1.328125 -0.125 1.875 0.109375 2.4375 0.109375 C 2.96875 0.109375 3.4375 -0.140625 3.75 -0.546875 L 3.75 0.109375 L 5.203125 0 L 5.203125 -0.3125 C 4.96875 -0.3125 4.6875 -0.3125 4.5625 -0.390625 C 4.4375 -0.484375 4.4375 -0.6875 4.4375 -0.84375 L 4.4375 -5.40625 L 5.203125 -5.40625 L 5.203125 -5.75 L 4.4375 -5.75 L 4.4375 -6.859375 L 3 -6.75 L 3 -6.453125 C 3.234375 -6.453125 3.515625 -6.453125 3.65625 -6.359375 C 3.78125 -6.265625 3.78125 -6.078125 3.78125 -5.90625 L 3.78125 -5.75 L 2.59375 -5.75 L 2.59375 -5.40625 L 3.78125 -5.40625 L 3.78125 -3.765625 C 3.484375 -4.125 3.046875 -4.375 2.546875 -4.375 C 1.953125 -4.375 1.390625 -4.140625 0.984375 -3.703125 Z M 3.75 -1 C 3.515625 -0.46875 3.03125 -0.109375 2.46875 -0.109375 C 2.078125 -0.109375 1.71875 -0.34375 1.46875 -0.6875 C 1.21875 -1.0625 1.15625 -1.515625 1.15625 -2.125 C 1.15625 -2.734375 1.234375 -3.1875 1.5 -3.578125 C 1.765625 -3.921875 2.15625 -4.140625 2.578125 -4.140625 C 3.078125 -4.140625 3.515625 -3.828125 3.75 -3.359375 Z M 3.75 -1 "/>
</symbol>
<symbol overflow="visible" id="glyph0-12">
<path style="stroke:none;" d="M 4.65625 -2.109375 C 4.65625 -3.375 3.671875 -4.4375 2.46875 -4.4375 C 1.234375 -4.4375 0.28125 -3.359375 0.28125 -2.109375 C 0.28125 -0.84375 1.3125 0.109375 2.46875 0.109375 C 3.65625 0.109375 4.65625 -0.859375 4.65625 -2.109375 Z M 2.46875 -0.140625 C 2.046875 -0.140625 1.609375 -0.34375 1.34375 -0.796875 C 1.09375 -1.234375 1.09375 -1.84375 1.09375 -2.203125 C 1.09375 -2.578125 1.09375 -3.109375 1.328125 -3.546875 C 1.609375 -4 2.0625 -4.21875 2.46875 -4.21875 C 2.890625 -4.21875 3.328125 -4 3.578125 -3.578125 C 3.84375 -3.140625 3.84375 -2.578125 3.84375 -2.203125 C 3.84375 -1.84375 3.84375 -1.3125 3.625 -0.875 C 3.40625 -0.421875 2.96875 -0.140625 2.46875 -0.140625 Z M 0.96875 -4.90625 L 2.46875 -5.59375 L 3.953125 -4.90625 L 4.046875 -5.109375 L 2.46875 -6.09375 L 0.875 -5.109375 Z M 2.46875 1.546875 C 2.703125 1.546875 2.921875 1.328125 2.921875 1.09375 C 2.921875 0.84375 2.703125 0.640625 2.46875 0.640625 C 2.21875 0.640625 2 0.84375 2 1.09375 C 2 1.328125 2.21875 1.546875 2.46875 1.546875 Z M 2.46875 1.546875 "/>
</symbol>
<symbol overflow="visible" id="glyph0-13">
<path style="stroke:none;" d="M 3.28125 2.375 C 3.28125 2.34375 3.28125 2.328125 3.109375 2.15625 C 1.875 0.90625 1.546875 -0.953125 1.546875 -2.46875 C 1.546875 -4.1875 1.921875 -5.921875 3.140625 -7.15625 C 3.28125 -7.265625 3.28125 -7.296875 3.28125 -7.3125 C 3.28125 -7.390625 3.234375 -7.421875 3.171875 -7.421875 C 3.078125 -7.421875 2.1875 -6.75 1.609375 -5.484375 C 1.09375 -4.40625 0.984375 -3.296875 0.984375 -2.46875 C 0.984375 -1.703125 1.09375 -0.5 1.625 0.609375 C 2.21875 1.828125 3.078125 2.46875 3.171875 2.46875 C 3.234375 2.46875 3.28125 2.4375 3.28125 2.375 Z M 3.28125 2.375 "/>
</symbol>
<symbol overflow="visible" id="glyph0-14">
<path style="stroke:none;" d="M 1.765625 -0.15625 C 1.78125 -0.15625 1.796875 -0.140625 1.796875 -0.015625 C 1.796875 0.625 1.515625 1.21875 1.078125 1.6875 C 1.015625 1.75 1.015625 1.765625 1.015625 1.796875 C 1.015625 1.875 1.0625 1.90625 1.109375 1.90625 C 1.21875 1.90625 2 1.125 2 -0.015625 C 2 -0.640625 1.765625 -1.046875 1.375 -1.046875 C 1.03125 -1.046875 0.84375 -0.78125 0.84375 -0.53125 C 0.84375 -0.265625 1.015625 0 1.375 0 C 1.53125 0 1.65625 -0.0625 1.75 -0.140625 Z M 1.765625 -0.15625 "/>
</symbol>
<symbol overflow="visible" id="glyph0-15">
<path style="stroke:none;" d="M 6.59375 -6.703125 L 0.546875 -6.703125 L 0.359375 -4.46875 L 0.609375 -4.46875 C 0.734375 -6.0625 0.890625 -6.390625 2.390625 -6.390625 C 2.5625 -6.390625 2.8125 -6.390625 2.921875 -6.375 C 3.125 -6.328125 3.125 -6.21875 3.125 -6 L 3.125 -0.78125 C 3.125 -0.4375 3.125 -0.3125 2.09375 -0.3125 L 1.6875 -0.3125 L 1.6875 0 C 2.09375 -0.03125 3.109375 -0.03125 3.5625 -0.03125 C 4.015625 -0.03125 5.03125 -0.03125 5.4375 0 L 5.4375 -0.3125 L 5.046875 -0.3125 C 4 -0.3125 4 -0.4375 4 -0.78125 L 4 -6 C 4 -6.1875 4 -6.328125 4.1875 -6.375 C 4.296875 -6.390625 4.5625 -6.390625 4.75 -6.390625 C 6.234375 -6.390625 6.390625 -6.0625 6.53125 -4.46875 L 6.78125 -4.46875 Z M 6.59375 -6.703125 "/>
</symbol>
<symbol overflow="visible" id="glyph0-16">
<path style="stroke:none;" d="M 2.859375 -2.46875 C 2.859375 -3.25 2.75 -4.4375 2.203125 -5.5625 C 1.609375 -6.78125 0.765625 -7.421875 0.65625 -7.421875 C 0.609375 -7.421875 0.5625 -7.375 0.5625 -7.3125 C 0.5625 -7.296875 0.5625 -7.265625 0.75 -7.09375 C 1.71875 -6.109375 2.28125 -4.546875 2.28125 -2.46875 C 2.28125 -0.78125 1.921875 0.953125 0.6875 2.203125 C 0.5625 2.328125 0.5625 2.34375 0.5625 2.375 C 0.5625 2.4375 0.609375 2.46875 0.65625 2.46875 C 0.765625 2.46875 1.65625 1.796875 2.234375 0.546875 C 2.734375 -0.546875 2.859375 -1.640625 2.859375 -2.46875 Z M 2.859375 -2.46875 "/>
</symbol>
<symbol overflow="visible" id="glyph0-17">
<path style="stroke:none;" d="M 1.734375 -3.328125 C 2.015625 -3.84375 2.5 -4.125 3 -4.125 C 3.734375 -4.125 4.328125 -3.25 4.328125 -2.140625 C 4.328125 -0.9375 3.640625 -0.109375 2.90625 -0.109375 C 2.515625 -0.109375 2.140625 -0.3125 1.875 -0.71875 C 1.734375 -0.921875 1.734375 -0.9375 1.734375 -1.125 Z M 1.734375 -0.578125 C 1.78125 -0.421875 2.203125 0.109375 2.953125 0.109375 C 4.125 0.109375 5.15625 -0.859375 5.15625 -2.140625 C 5.15625 -3.390625 4.1875 -4.375 3.078125 -4.375 C 2.3125 -4.375 1.90625 -3.9375 1.703125 -3.71875 L 1.703125 -4.375 L 0.28125 -4.265625 L 0.28125 -3.953125 C 0.984375 -3.953125 1.046875 -3.890625 1.046875 -3.46875 L 1.046875 1.171875 C 1.046875 1.609375 0.9375 1.609375 0.28125 1.609375 L 0.28125 1.921875 C 0.609375 1.90625 1.125 1.890625 1.390625 1.890625 C 1.65625 1.890625 2.15625 1.90625 2.5 1.921875 L 2.5 1.609375 C 1.84375 1.609375 1.734375 1.609375 1.734375 1.171875 Z M 1.734375 -0.578125 "/>
</symbol>
<symbol overflow="visible" id="glyph1-0">
<path style="stroke:none;" d=""/>
</symbol>
<symbol overflow="visible" id="glyph1-1">
<path style="stroke:none;" d="M 4.21875 -6 C 4.296875 -6.28125 4.328125 -6.34375 4.453125 -6.375 C 4.546875 -6.390625 4.859375 -6.390625 5.078125 -6.390625 C 6.078125 -6.390625 6.515625 -6.34375 6.515625 -5.578125 C 6.515625 -5.4375 6.484375 -5.046875 6.4375 -4.78125 C 6.421875 -4.75 6.40625 -4.625 6.40625 -4.59375 C 6.40625 -4.546875 6.4375 -4.46875 6.53125 -4.46875 C 6.640625 -4.46875 6.65625 -4.546875 6.671875 -4.703125 L 6.9375 -6.421875 C 6.953125 -6.453125 6.96875 -6.5625 6.96875 -6.59375 C 6.96875 -6.703125 6.859375 -6.703125 6.703125 -6.703125 L 1.203125 -6.703125 C 0.96875 -6.703125 0.953125 -6.6875 0.890625 -6.5 L 0.296875 -4.75 C 0.28125 -4.734375 0.234375 -4.59375 0.234375 -4.578125 C 0.234375 -4.515625 0.28125 -4.46875 0.359375 -4.46875 C 0.453125 -4.46875 0.46875 -4.515625 0.53125 -4.671875 C 1.0625 -6.21875 1.3125 -6.390625 2.78125 -6.390625 L 3.171875 -6.390625 C 3.4375 -6.390625 3.4375 -6.34375 3.4375 -6.265625 C 3.4375 -6.21875 3.40625 -6.09375 3.40625 -6.0625 L 2.078125 -0.78125 C 1.984375 -0.421875 1.953125 -0.3125 0.90625 -0.3125 C 0.546875 -0.3125 0.484375 -0.3125 0.484375 -0.125 C 0.484375 0 0.59375 0 0.65625 0 C 0.921875 0 1.203125 -0.015625 1.46875 -0.015625 C 1.734375 -0.015625 2.03125 -0.03125 2.296875 -0.03125 C 2.578125 -0.03125 2.859375 -0.015625 3.125 -0.015625 C 3.40625 -0.015625 3.703125 0 3.984375 0 C 4.078125 0 4.203125 0 4.203125 -0.203125 C 4.203125 -0.3125 4.125 -0.3125 3.875 -0.3125 C 3.625 -0.3125 3.484375 -0.3125 3.234375 -0.328125 C 2.953125 -0.359375 2.875 -0.390625 2.875 -0.546875 C 2.875 -0.546875 2.875 -0.609375 2.90625 -0.75 Z M 4.21875 -6 "/>
</symbol>
<symbol overflow="visible" id="glyph1-2">
<path style="stroke:none;" d="M 0.4375 1.203125 C 0.359375 1.546875 0.34375 1.609375 -0.09375 1.609375 C -0.203125 1.609375 -0.3125 1.609375 -0.3125 1.796875 C -0.3125 1.875 -0.265625 1.921875 -0.1875 1.921875 C 0.078125 1.921875 0.359375 1.890625 0.640625 1.890625 C 0.96875 1.890625 1.3125 1.921875 1.625 1.921875 C 1.671875 1.921875 1.796875 1.921875 1.796875 1.71875 C 1.796875 1.609375 1.703125 1.609375 1.5625 1.609375 C 1.0625 1.609375 1.0625 1.546875 1.0625 1.453125 C 1.0625 1.328125 1.484375 -0.28125 1.546875 -0.53125 C 1.6875 -0.234375 1.953125 0.109375 2.46875 0.109375 C 3.609375 0.109375 4.84375 -1.328125 4.84375 -2.796875 C 4.84375 -3.71875 4.28125 -4.375 3.53125 -4.375 C 3.03125 -4.375 2.5625 -4.015625 2.234375 -3.625 C 2.140625 -4.15625 1.71875 -4.375 1.34375 -4.375 C 0.890625 -4.375 0.703125 -3.984375 0.609375 -3.8125 C 0.4375 -3.46875 0.3125 -2.875 0.3125 -2.84375 C 0.3125 -2.75 0.40625 -2.75 0.421875 -2.75 C 0.53125 -2.75 0.53125 -2.765625 0.59375 -2.984375 C 0.765625 -3.671875 0.953125 -4.15625 1.3125 -4.15625 C 1.484375 -4.15625 1.625 -4.078125 1.625 -3.703125 C 1.625 -3.46875 1.59375 -3.359375 1.546875 -3.1875 Z M 2.1875 -3.078125 C 2.25 -3.359375 2.515625 -3.625 2.703125 -3.78125 C 3.046875 -4.078125 3.328125 -4.15625 3.5 -4.15625 C 3.890625 -4.15625 4.140625 -3.8125 4.140625 -3.21875 C 4.140625 -2.640625 3.8125 -1.5 3.625 -1.125 C 3.296875 -0.4375 2.8125 -0.109375 2.453125 -0.109375 C 1.796875 -0.109375 1.671875 -0.9375 1.671875 -0.984375 C 1.671875 -1.015625 1.671875 -1.03125 1.703125 -1.140625 Z M 2.1875 -3.078125 "/>
</symbol>
<symbol overflow="visible" id="glyph1-3">
<path style="stroke:none;" d="M 6.671875 -4.921875 C 6.796875 -4.984375 6.859375 -5.03125 6.859375 -5.140625 C 6.859375 -5.25 6.78125 -5.34375 6.671875 -5.34375 C 6.640625 -5.34375 6.609375 -5.34375 6.484375 -5.265625 L 1.015625 -2.6875 C 0.90625 -2.640625 0.828125 -2.59375 0.828125 -2.46875 C 0.828125 -2.359375 0.90625 -2.296875 1.015625 -2.25 L 6.484375 0.328125 C 6.609375 0.390625 6.640625 0.390625 6.671875 0.390625 C 6.78125 0.390625 6.859375 0.3125 6.859375 0.203125 C 6.859375 0.09375 6.796875 0.046875 6.671875 -0.015625 L 1.484375 -2.46875 Z M 6.671875 -4.921875 "/>
</symbol>
<symbol overflow="visible" id="glyph1-4">
<path style="stroke:none;" d="M 6.21875 -5.625 C 6.703125 -6.40625 7.109375 -6.421875 7.484375 -6.453125 C 7.59375 -6.453125 7.609375 -6.625 7.609375 -6.640625 C 7.609375 -6.71875 7.5625 -6.75 7.484375 -6.75 C 7.21875 -6.75 6.9375 -6.71875 6.671875 -6.71875 C 6.34375 -6.71875 6 -6.75 5.6875 -6.75 C 5.625 -6.75 5.5 -6.75 5.5 -6.5625 C 5.5 -6.453125 5.59375 -6.453125 5.65625 -6.453125 C 5.921875 -6.421875 6.109375 -6.328125 6.109375 -6.125 C 6.109375 -5.96875 5.96875 -5.75 5.96875 -5.75 L 2.921875 -0.921875 L 2.25 -6.15625 C 2.25 -6.3125 2.484375 -6.453125 2.9375 -6.453125 C 3.078125 -6.453125 3.1875 -6.453125 3.1875 -6.640625 C 3.1875 -6.734375 3.109375 -6.75 3.046875 -6.75 C 2.65625 -6.75 2.21875 -6.71875 1.8125 -6.71875 C 1.640625 -6.71875 1.453125 -6.734375 1.28125 -6.734375 C 1.09375 -6.734375 0.90625 -6.75 0.734375 -6.75 C 0.671875 -6.75 0.546875 -6.75 0.546875 -6.5625 C 0.546875 -6.453125 0.640625 -6.453125 0.796875 -6.453125 C 1.359375 -6.453125 1.359375 -6.359375 1.390625 -6.109375 L 2.171875 -0.015625 C 2.203125 0.1875 2.25 0.21875 2.375 0.21875 C 2.53125 0.21875 2.578125 0.171875 2.65625 0.046875 Z M 6.21875 -5.625 "/>
</symbol>
<symbol overflow="visible" id="glyph2-0">
<path style="stroke:none;" d=""/>
</symbol>
<symbol overflow="visible" id="glyph2-1">
<path style="stroke:none;" d="M 2.3125 -4.40625 C 2.3125 -4.59375 2.3125 -4.59375 2.109375 -4.59375 C 1.671875 -4.15625 1.03125 -4.15625 0.75 -4.15625 L 0.75 -3.90625 C 0.921875 -3.90625 1.375 -3.90625 1.765625 -4.09375 L 1.765625 -0.5625 C 1.765625 -0.34375 1.765625 -0.25 1.0625 -0.25 L 0.796875 -0.25 L 0.796875 0 C 0.921875 0 1.78125 -0.03125 2.03125 -0.03125 C 2.25 -0.03125 3.125 0 3.28125 0 L 3.28125 -0.25 L 3.015625 -0.25 C 2.3125 -0.25 2.3125 -0.34375 2.3125 -0.5625 Z M 2.3125 -4.40625 "/>
</symbol>
<symbol overflow="visible" id="glyph2-2">
<path style="stroke:none;" d="M 3.5 -1.265625 L 3.265625 -1.265625 C 3.234375 -1.109375 3.171875 -0.703125 3.078125 -0.625 C 3.03125 -0.59375 2.484375 -0.59375 2.390625 -0.59375 L 1.125 -0.59375 C 1.84375 -1.234375 2.09375 -1.421875 2.5 -1.75 C 3.015625 -2.15625 3.5 -2.59375 3.5 -3.25 C 3.5 -4.078125 2.765625 -4.59375 1.875 -4.59375 C 1.015625 -4.59375 0.4375 -4 0.4375 -3.359375 C 0.4375 -3 0.734375 -2.96875 0.796875 -2.96875 C 0.96875 -2.96875 1.171875 -3.09375 1.171875 -3.34375 C 1.171875 -3.453125 1.125 -3.703125 0.765625 -3.703125 C 0.96875 -4.1875 1.453125 -4.34375 1.765625 -4.34375 C 2.46875 -4.34375 2.828125 -3.8125 2.828125 -3.25 C 2.828125 -2.640625 2.390625 -2.171875 2.171875 -1.921875 L 0.5 -0.265625 C 0.4375 -0.203125 0.4375 -0.1875 0.4375 0 L 3.28125 0 Z M 3.5 -1.265625 "/>
</symbol>
</g>
</defs>
<g id="surface1">
<path style="fill:none;stroke-width:0.3985;stroke-linecap:butt;stroke-linejoin:miter;stroke:rgb(0%,0%,0%);stroke-opacity:1;stroke-miterlimit:10;" d="M 0.00019766 0.000871619 L 84.64011 0.000871619 " transform="matrix(0.993086,0,0,-0.993086,20.699022,96.075084)"/>
<path style="fill:none;stroke-width:0.3985;stroke-linecap:round;stroke-linejoin:round;stroke:rgb(0%,0%,0%);stroke-opacity:1;stroke-miterlimit:10;" d="M -2.073381 2.392407 C -1.691837 0.956699 -0.850079 0.280146 -0.00045451 0.000871619 C -0.850079 -0.278403 -1.691837 -0.954956 -2.073381 -2.390664 " transform="matrix(0.993086,0,0,-0.993086,104.953576,96.075084)"/>
<g style="fill:rgb(0%,0%,0%);fill-opacity:1;">
  <use xlink:href="#glyph0-1" x="9.510919" y="99.432707"/>
</g>
<g style="fill:rgb(0%,0%,0%);fill-opacity:1;">
  <use xlink:href="#glyph1-1" x="101.571951" y="106.330681"/>
</g>
<path style="fill:none;stroke-width:0.3985;stroke-linecap:butt;stroke-linejoin:miter;stroke:rgb(0%,0%,0%);stroke-opacity:1;stroke-miterlimit:10;" d="M 0.00019766 0.000871619 L 0.00019766 84.640784 " transform="matrix(0.993086,0,0,-0.993086,20.699022,96.075084)"/>
<path style="fill:none;stroke-width:0.3985;stroke-linecap:round;stroke-linejoin:round;stroke:rgb(0%,0%,0%);stroke-opacity:1;stroke-miterlimit:10;" d="M -2.072707 2.391338 C -1.695096 0.95563 -0.849405 0.279077 0.00021945 -0.00019766 C -0.849405 -0.279472 -1.695096 -0.956025 -2.072707 -2.391733 " transform="matrix(0,-0.993086,-0.993086,0,20.699022,11.82053)"/>
<g style="fill:rgb(0%,0%,0%);fill-opacity:1;">
  <use xlink:href="#glyph0-2" x="9.786004" y="14.981691"/>
</g>
<path style="fill:none;stroke-width:0.3985;stroke-linecap:butt;stroke-linejoin:miter;stroke:rgb(0%,0%,0%);stroke-opacity:1;stroke-dasharray:2.98883,2.98883;stroke-miterlimit:10;" d="M 0.00019766 0.000871619 L 18.219924 21.713499 " transform="matrix(0.993086,0,0,-0.993086,20.699022,96.075084)"/>
<path style="fill:none;stroke-width:0.79701;stroke-linecap:butt;stroke-linejoin:miter;stroke:rgb(0%,0%,100%);stroke-opacity:1;stroke-miterlimit:10;" d="M 18.219924 21.713499 L 54.66331 65.142687 " transform="matrix(0.993086,0,0,-0.993086,20.699022,96.075084)"/>
<g style="fill:rgb(0%,0%,0%);fill-opacity:1;">
  <use xlink:href="#glyph1-2" x="70.274854" y="25.765609"/>
</g>
<g style="fill:rgb(0%,0%,0%);fill-opacity:1;">
  <use xlink:href="#glyph2-1" x="75.253193" y="27.250272"/>
</g>
<path style="fill:none;stroke-width:0.3985;stroke-linecap:butt;stroke-linejoin:miter;stroke:rgb(0%,0%,0%);stroke-opacity:1;stroke-dasharray:2.98883,2.98883;stroke-miterlimit:10;" d="M 0.00019766 0.000871619 L 24.54884 14.173081 " transform="matrix(0.993086,0,0,-0.993086,20.699022,96.075084)"/>
<path style="fill:none;stroke-width:0.79701;stroke-linecap:butt;stroke-linejoin:miter;stroke:rgb(0%,0%,100%);stroke-opacity:1;stroke-miterlimit:10;" d="M 24.54884 14.173081 L 73.646125 42.521433 " transform="matrix(0.993086,0,0,-0.993086,20.699022,96.075084)"/>
<g style="fill:rgb(0%,0%,0%);fill-opacity:1;">
  <use xlink:href="#glyph1-2" x="97.528106" y="55.016949"/>
</g>
<g style="fill:rgb(0%,0%,0%);fill-opacity:1;">
  <use xlink:href="#glyph2-2" x="102.506444" y="56.501612"/>
</g>
<g style="fill:rgb(0%,0%,0%);fill-opacity:1;">
  <use xlink:href="#glyph1-2" x="88.886274" y="36.371764"/>
</g>
<g style="fill:rgb(0%,0%,0%);fill-opacity:1;">
  <use xlink:href="#glyph2-1" x="93.863619" y="37.856427"/>
</g>
<g style="fill:rgb(0%,0%,0%);fill-opacity:1;">
  <use xlink:href="#glyph1-3" x="101.050581" y="36.371764"/>
</g>
<g style="fill:rgb(0%,0%,0%);fill-opacity:1;">
  <use xlink:href="#glyph1-2" x="111.496366" y="36.371764"/>
</g>
<g style="fill:rgb(0%,0%,0%);fill-opacity:1;">
  <use xlink:href="#glyph2-2" x="116.472209" y="37.856427"/>
</g>
<g style="fill:rgb(0%,0%,0%);fill-opacity:1;">
  <use xlink:href="#glyph0-3" x="15.377076" y="127.354305"/>
  <use xlink:href="#glyph0-4" x="22.795384" y="127.354305"/>
</g>
<g style="fill:rgb(0%,0%,0%);fill-opacity:1;">
  <use xlink:href="#glyph0-5" x="30.485769" y="127.354305"/>
  <use xlink:href="#glyph0-6" x="34.332446" y="127.354305"/>
  <use xlink:href="#glyph0-7" x="38.206825" y="127.354305"/>
  <use xlink:href="#glyph0-8" x="43.701795" y="127.354305"/>
</g>
<g style="fill:rgb(0%,0%,0%);fill-opacity:1;">
  <use xlink:href="#glyph0-5" x="51.402074" y="127.354305"/>
  <use xlink:href="#glyph0-9" x="55.248751" y="127.354305"/>
  <use xlink:href="#glyph0-10" x="60.194619" y="127.354305"/>
</g>
<g style="fill:rgb(0%,0%,0%);fill-opacity:1;">
  <use xlink:href="#glyph0-11" x="68.435095" y="127.354305"/>
  <use xlink:href="#glyph0-12" x="73.930065" y="127.354305"/>
</g>
<g style="fill:rgb(0%,0%,0%);fill-opacity:1;">
  <use xlink:href="#glyph0-13" x="82.17054" y="127.354305"/>
  <use xlink:href="#glyph0-2" x="86.017217" y="127.354305"/>
  <use xlink:href="#glyph0-14" x="93.435525" y="127.354305"/>
</g>
<g style="fill:rgb(0%,0%,0%);fill-opacity:1;">
  <use xlink:href="#glyph0-15" x="99.477617" y="127.354305"/>
  <use xlink:href="#glyph0-16" x="106.62088" y="127.354305"/>
</g>
<path style="fill:none;stroke-width:0.3985;stroke-linecap:butt;stroke-linejoin:miter;stroke:rgb(0%,0%,0%);stroke-opacity:1;stroke-miterlimit:10;" d="M 141.734093 0.000871619 L 226.374005 0.000871619 " transform="matrix(0.993086,0,0,-0.993086,20.699022,96.075084)"/>
<path style="fill:none;stroke-width:0.3985;stroke-linecap:round;stroke-linejoin:round;stroke:rgb(0%,0%,0%);stroke-opacity:1;stroke-miterlimit:10;" d="M -2.073546 2.392407 C -1.692002 0.956699 -0.850244 0.280146 -0.000619615 0.000871619 C -0.850244 -0.278403 -1.692002 -0.954956 -2.073546 -2.390664 " transform="matrix(0.993086,0,0,-0.993086,245.707647,96.075084)"/>
<g style="fill:rgb(0%,0%,0%);fill-opacity:1;">
  <use xlink:href="#glyph0-1" x="150.262943" y="99.432707"/>
</g>
<g style="fill:rgb(0%,0%,0%);fill-opacity:1;">
  <use xlink:href="#glyph1-2" x="243.41339" y="103.829098"/>
</g>
<path style="fill:none;stroke-width:0.3985;stroke-linecap:butt;stroke-linejoin:miter;stroke:rgb(0%,0%,0%);stroke-opacity:1;stroke-miterlimit:10;" d="M 141.734093 0.000871619 L 141.734093 84.640784 " transform="matrix(0.993086,0,0,-0.993086,20.699022,96.075084)"/>
<path style="fill:none;stroke-width:0.3985;stroke-linecap:round;stroke-linejoin:round;stroke:rgb(0%,0%,0%);stroke-opacity:1;stroke-miterlimit:10;" d="M -2.072707 2.391483 C -1.695096 0.955775 -0.849405 0.279222 0.00021945 -0.0000525542 C -0.849405 -0.279327 -1.695096 -0.95588 -2.072707 -2.391588 " transform="matrix(0,-0.993086,-0.993086,0,161.453073,11.82053)"/>
<g style="fill:rgb(0%,0%,0%);fill-opacity:1;">
  <use xlink:href="#glyph1-4" x="149.986865" y="15.003539"/>
</g>
<path style="fill:none;stroke-width:0.79701;stroke-linecap:butt;stroke-linejoin:miter;stroke:rgb(0%,0%,100%);stroke-opacity:1;stroke-miterlimit:10;" d="M 198.426864 28.345291 L 198.426864 85.041995 " transform="matrix(0.993086,0,0,-0.993086,20.699022,96.075084)"/>
<g style="fill:rgb(0%,0%,0%);fill-opacity:1;">
  <use xlink:href="#glyph0-3" x="156.954355" y="127.354305"/>
  <use xlink:href="#glyph0-4" x="164.372663" y="127.354305"/>
</g>
<g style="fill:rgb(0%,0%,0%);fill-opacity:1;">
  <use xlink:href="#glyph0-5" x="172.063048" y="127.354305"/>
  <use xlink:href="#glyph0-6" x="175.909725" y="127.354305"/>
  <use xlink:href="#glyph0-7" x="179.784104" y="127.354305"/>
  <use xlink:href="#glyph0-8" x="185.279074" y="127.354305"/>
</g>
<g style="fill:rgb(0%,0%,0%);fill-opacity:1;">
  <use xlink:href="#glyph0-5" x="192.979353" y="127.354305"/>
  <use xlink:href="#glyph0-9" x="196.826029" y="127.354305"/>
  <use xlink:href="#glyph0-10" x="201.771898" y="127.354305"/>
</g>
<g style="fill:rgb(0%,0%,0%);fill-opacity:1;">
  <use xlink:href="#glyph0-11" x="210.012374" y="127.354305"/>
  <use xlink:href="#glyph0-12" x="215.507343" y="127.354305"/>
</g>
<g style="fill:rgb(0%,0%,0%);fill-opacity:1;">
  <use xlink:href="#glyph0-13" x="223.747819" y="127.354305"/>
  <use xlink:href="#glyph0-17" x="227.594496" y="127.354305"/>
  <use xlink:href="#glyph0-14" x="233.089466" y="127.354305"/>
</g>
<g style="fill:rgb(0%,0%,0%);fill-opacity:1;">
  <use xlink:href="#glyph0-2" x="239.131558" y="127.354305"/>
  <use xlink:href="#glyph0-16" x="246.549866" y="127.354305"/>
</g>
<path style="fill:none;stroke-width:0.3985;stroke-linecap:butt;stroke-linejoin:miter;stroke:rgb(0%,0%,0%);stroke-opacity:1;stroke-miterlimit:10;" d="M 283.467987 0.000871619 L 368.111833 0.000871619 " transform="matrix(0.993086,0,0,-0.993086,20.699022,96.075084)"/>
<path style="fill:none;stroke-width:0.3985;stroke-linecap:round;stroke-linejoin:round;stroke:rgb(0%,0%,0%);stroke-opacity:1;stroke-miterlimit:10;" d="M -2.073691 2.392407 C -1.692147 0.956699 -0.850389 0.280146 -0.000764721 0.000871619 C -0.850389 -0.278403 -1.692147 -0.954956 -2.073691 -2.390664 " transform="matrix(0.993086,0,0,-0.993086,386.461697,96.075084)"/>
<g style="fill:rgb(0%,0%,0%);fill-opacity:1;">
  <use xlink:href="#glyph0-1" x="291.014968" y="99.432707"/>
</g>
<g style="fill:rgb(0%,0%,0%);fill-opacity:1;">
  <use xlink:href="#glyph1-2" x="384.165415" y="103.829098"/>
</g>
<path style="fill:none;stroke-width:0.3985;stroke-linecap:butt;stroke-linejoin:miter;stroke:rgb(0%,0%,0%);stroke-opacity:1;stroke-miterlimit:10;" d="M 283.467987 0.000871619 L 283.467987 84.640784 " transform="matrix(0.993086,0,0,-0.993086,20.699022,96.075084)"/>
<path style="fill:none;stroke-width:0.3985;stroke-linecap:round;stroke-linejoin:round;stroke:rgb(0%,0%,0%);stroke-opacity:1;stroke-miterlimit:10;" d="M -2.072707 2.391648 C -1.695096 0.95594 -0.849405 0.279387 0.00021945 0.000112551 C -0.849405 -0.279162 -1.695096 -0.955715 -2.072707 -2.391423 " transform="matrix(0,-0.993086,-0.993086,0,302.207143,11.82053)"/>
<g style="fill:rgb(0%,0%,0%);fill-opacity:1;">
  <use xlink:href="#glyph1-1" x="291.55322" y="15.003539"/>
</g>
<path style="fill:none;stroke-width:0.79701;stroke-linecap:butt;stroke-linejoin:miter;stroke:rgb(0%,0%,100%);stroke-opacity:1;stroke-miterlimit:10;" d="M 340.160759 28.345291 L 340.160759 85.041995 " transform="matrix(0.993086,0,0,-0.993086,20.699022,96.075084)"/>
<g style="fill:rgb(0%,0%,0%);fill-opacity:1;">
  <use xlink:href="#glyph0-3" x="297.843425" y="127.354305"/>
  <use xlink:href="#glyph0-4" x="305.261733" y="127.354305"/>
</g>
<g style="fill:rgb(0%,0%,0%);fill-opacity:1;">
  <use xlink:href="#glyph0-5" x="312.952118" y="127.354305"/>
  <use xlink:href="#glyph0-6" x="316.798795" y="127.354305"/>
  <use xlink:href="#glyph0-7" x="320.673174" y="127.354305"/>
  <use xlink:href="#glyph0-8" x="326.168144" y="127.354305"/>
</g>
<g style="fill:rgb(0%,0%,0%);fill-opacity:1;">
  <use xlink:href="#glyph0-5" x="333.868423" y="127.354305"/>
  <use xlink:href="#glyph0-9" x="337.7151" y="127.354305"/>
  <use xlink:href="#glyph0-10" x="342.660968" y="127.354305"/>
</g>
<g style="fill:rgb(0%,0%,0%);fill-opacity:1;">
  <use xlink:href="#glyph0-11" x="350.901444" y="127.354305"/>
  <use xlink:href="#glyph0-12" x="356.396414" y="127.354305"/>
</g>
<g style="fill:rgb(0%,0%,0%);fill-opacity:1;">
  <use xlink:href="#glyph0-13" x="364.636889" y="127.354305"/>
  <use xlink:href="#glyph0-15" x="368.483566" y="127.354305"/>
  <use xlink:href="#glyph0-14" x="375.626829" y="127.354305"/>
</g>
<g style="fill:rgb(0%,0%,0%);fill-opacity:1;">
  <use xlink:href="#glyph0-17" x="381.668921" y="127.354305"/>
  <use xlink:href="#glyph0-16" x="387.163891" y="127.354305"/>
</g>
</g>
</svg>
